<svg viewBox="576.0287 468.17 377.9425 77.6599" width="105px" height="25px" xmlns="http://www.w3.org/2000/svg" xmlns:xlink="http://www.w3.org/1999/xlink" preserveAspectRatio="none"><defs></defs><style>.aD6z1nYkhcolor {fill:#000000;fill-opacity:1;}.aD6z1nYkhstrokeColor-str {stroke:#3F3F3F;stroke-opacity:1;}</style><g opacity="1" transform="rotate(0 576.0287 468.17)">
<svg width="377.9425" height="77.6599" x="576.0287" y="468.17" version="1.1" preserveAspectRatio="none" viewBox="0.92 -27.6 121.27999999999999 27.800000000000004">
  <g transform="matrix(1 0 0 1 0 0)" class="aD6z1nYkhcolor"><path id="id-D6z1nYkh6" d="M10.76-11.44L10.76-11.44L10.48-10.48L16.96-10.48L16.68-11.44Q15.52-15.36 14.78-18.12Q14.04-20.88 13.88-21.68L13.88-21.68L13.72-22.48Q13.40-20.28 10.76-11.44ZM9-5.52L7.36 0L0.92 0L9.92-26.96L17.68-26.96L26.68 0L20.08 0L18.44-5.52L9-5.52Z M41.84-5.28L41.84-0.44Q40.36 0.20 37.84 0.20L37.84 0.20Q30.92 0.20 30.92-6.72L30.92-6.72L30.92-16L28-16L28-20.28L30.92-20.28L30.92-25.08L36.76-25.08L36.76-20.28L41.48-20.28L41.48-16L36.76-16L36.76-6.68Q36.76-5.60 37.38-5.04Q38-4.48 39-4.48L39-4.48Q40.60-4.48 41.84-5.28L41.84-5.28Z M61.36-6.04L61.36-1.16Q59.28 0.20 55 0.20L55 0.20Q50 0.20 47.22-2.70Q44.44-5.60 44.44-10.16L44.44-10.16Q44.44-15 47.14-17.74Q49.84-20.48 53.80-20.48L53.80-20.48Q57.88-20.48 60.24-18.10Q62.60-15.72 62.60-11L62.60-11Q62.60-10.08 62.28-7.84L62.28-7.84L50.36-7.84Q50.96-6.16 52.44-5.24Q53.92-4.32 56-4.32L56-4.32Q59.08-4.32 61.36-6.04L61.36-6.04ZM54.04-16.04L54.04-16.04Q52.64-16.04 51.56-15.02Q50.48-14 50.12-12L50.12-12L57.16-12L57.16-12.48Q56.88-16.04 54.04-16.04Z M72.60-9.96L72.60 0L66.76 0L66.76-27.60L72.60-27.60L72.60-11.20L79-20.28L85.72-20.28L78.68-10.56L85.84 0L79.08 0L72.60-9.96Z M104.60-6.04L104.60-1.16Q102.52 0.20 98.24 0.20L98.24 0.20Q93.24 0.20 90.46-2.70Q87.68-5.60 87.68-10.16L87.68-10.16Q87.68-15 90.38-17.74Q93.08-20.48 97.04-20.48L97.04-20.48Q101.12-20.48 103.48-18.10Q105.84-15.72 105.84-11L105.84-11Q105.84-10.08 105.52-7.84L105.52-7.84L93.60-7.84Q94.20-6.16 95.68-5.24Q97.16-4.32 99.24-4.32L99.24-4.32Q102.32-4.32 104.60-6.04L104.60-6.04ZM97.28-16.04L97.28-16.04Q95.88-16.04 94.80-15.02Q93.72-14 93.36-12L93.36-12L100.40-12L100.40-12.48Q100.12-16.04 97.28-16.04Z M115.80-10.12L115.80 0L109.96 0L110-20.28L115.80-20.28L115.80-16.52Q116.36-18.28 117.66-19.34Q118.96-20.40 120.68-20.40L120.68-20.40Q121.64-20.40 122.20-20.24L122.20-20.24L122.20-14.72Q121.24-15.16 120-15.16L120-15.16Q118.12-15.16 116.96-13.78Q115.80-12.40 115.80-10.12L115.80-10.12Z"/></g>
</svg>
</g></svg>