<?xml version="1.0" standalone="no"?>
<!DOCTYPE svg PUBLIC "-//W3C//DTD SVG 20010904//EN"
 "http://www.w3.org/TR/2001/REC-SVG-20010904/DTD/svg10.dtd">
<svg version="1.0" xmlns="http://www.w3.org/2000/svg"
 width="755.000000pt" height="755.000000pt" viewBox="0 0 755.000000 755.000000"
 preserveAspectRatio="xMidYMid meet">
<metadata>
Created by potrace 1.14, written by Peter Selinger 2001-2017
</metadata>
<g transform="translate(0.000000,755.000000) scale(0.100000,-0.100000)"
fill="#000000" stroke="none">
<path d="M2904 7052 c-59 -10 -182 -46 -217 -64 -153 -78 -260 -208 -401 -488
-80 -157 -155 -301 -186 -355 -10 -16 -50 -93 -90 -170 -40 -77 -76 -144 -80
-150 -4 -5 -35 -64 -70 -130 -34 -66 -77 -147 -95 -180 -18 -33 -52 -98 -77
-145 -25 -47 -62 -116 -83 -155 -21 -38 -60 -113 -87 -165 -28 -52 -65 -122
-83 -155 -18 -33 -51 -95 -74 -137 -22 -43 -60 -113 -82 -155 -23 -43 -58
-109 -79 -148 -20 -38 -61 -115 -90 -170 -29 -55 -65 -122 -80 -150 -15 -27
-49 -90 -75 -140 -26 -49 -82 -155 -125 -235 -42 -80 -99 -185 -125 -235 -26
-49 -65 -124 -88 -165 -22 -41 -58 -109 -80 -150 -22 -41 -52 -97 -67 -125
-15 -27 -53 -99 -85 -160 -32 -60 -72 -137 -90 -170 -63 -117 -119 -221 -178
-335 -33 -63 -70 -131 -82 -150 -41 -67 -46 -49 57 -240 23 -41 51 -93 63
-115 26 -47 71 -129 127 -235 22 -41 132 -244 243 -450 111 -206 219 -406 240
-445 141 -263 155 -287 165 -283 4 2 25 17 46 35 22 18 93 75 159 128 66 53
127 101 135 108 8 7 35 28 60 47 25 19 47 37 50 40 3 3 95 78 205 165 110 88
202 162 205 165 3 3 93 75 200 160 107 85 201 161 208 168 8 7 30 25 50 40 20
15 153 121 297 236 143 115 427 342 630 505 204 162 372 298 375 301 3 3 25
21 50 40 25 19 47 37 50 40 16 17 114 90 122 90 7 0 167 -124 273 -212 11 -9
250 -199 530 -423 281 -223 528 -420 549 -438 21 -18 61 -48 87 -69 27 -20 55
-42 63 -50 7 -7 59 -49 116 -93 56 -44 177 -140 268 -213 230 -184 200 -160
572 -456 184 -147 346 -276 359 -286 13 -11 28 -17 32 -14 4 2 42 68 85 147
75 138 95 175 184 342 24 44 53 98 65 120 22 38 46 84 130 240 21 39 83 153
138 255 147 273 160 297 207 385 24 44 58 108 77 143 l35 62 -22 43 c-12 23
-58 110 -102 192 -129 241 -152 285 -208 390 -29 55 -101 190 -160 300 -59
110 -131 245 -160 300 -29 55 -65 123 -80 150 -15 28 -56 104 -90 170 -35 66
-71 134 -80 150 -10 17 -41 75 -70 130 -29 55 -69 132 -90 170 -21 39 -59 111
-85 160 -26 50 -60 113 -75 140 -15 28 -50 93 -77 145 -28 52 -68 127 -88 165
-21 39 -56 104 -78 145 -22 41 -74 140 -117 220 -42 80 -101 190 -130 245 -29
55 -83 156 -120 225 -37 69 -91 170 -120 225 -82 155 -141 266 -168 315 -13
25 -63 119 -110 210 -125 244 -161 309 -205 375 -62 92 -159 180 -241 220
-136 66 -107 65 -1072 62 -479 -1 -879 -3 -890 -5z m918 -1392 c22 -41 123
-226 223 -410 100 -184 204 -375 230 -425 26 -49 51 -94 55 -100 4 -5 29 -50
55 -100 49 -92 91 -171 140 -260 42 -76 77 -141 130 -240 26 -49 56 -103 65
-120 10 -16 34 -61 55 -100 52 -97 82 -152 249 -459 80 -147 146 -272 146
-276 0 -3 -630 -7 -1399 -6 l-1400 0 21 40 c12 23 42 79 68 126 26 47 65 119
87 160 23 41 139 255 258 475 120 220 233 429 252 465 49 90 96 177 125 230
14 25 45 81 68 125 23 44 56 104 73 134 75 137 376 693 407 753 19 38 39 67
43 65 5 -1 27 -36 49 -77z"/>
</g>
</svg>
